# xmcd
#
# Track frame offsets:
#	150
#	12256
#	22464
#	33204
#	46129
#	55698
#	65714
#	76745
#	93106
#	108048
#	117941
#	133562
#	144763
#	158441
#	168472
#	178497
#	189746
#	198636
#	210424
#	222826
#	233146
#
# Disc length: 3261 seconds
#
# Revision: 4
# Processed by: cddbd v1.5.2PL0 Copyright (c) Steve Scherf et al.
# Submitted via: audiograbber 1.83.01
#
DISCID=190cbb15
DTITLE=Doris Day - Her Life in Music, Movie Hits
DYEAR=2004
DGENRE=Vocal
TTITLE0=Move Over, Darling (1963)
TTITLE1=Love Me Or Leave Me (1955)
TTITLE2=Any Way The Wind Blows (1960)
TTITLE3=By The Light Of The Silvery Moon (1953)
TTITLE4=Whatever Will Be, Will Be (Que Sera, Sera) 1956)
TTITLE5=Julie (1956)
TTITLE6=Ready, Willing And Able (1954)
TTITLE7=Secret Love (1953)
TTITLE8=I'll See You In My Dreams (1952)
TTITLE9=Pillow Talk (1959)
TTITLE10=It's Magic (1948)
TTITLE11=Lullaby Of Broadway (1951)
TTITLE12=The Black Hills Of Dakota (1953)
TTITLE13=The Tunnel Of Love (1948)
TTITLE14=Send Me No Flowers (1964)
TTITLE15=On Moonlight Bay (1951)
TTITLE16=I'll Never Stop Loving You (1955)
TTITLE17=Teacher's Pet (1957)
TTITLE18=The Glass Bottom Boat (alternate take 2) (1966)
TTITLE19=Lover Come Back (1962)
TTITLE20=Caprice (1966)
EXTD=Track dates provided.
EXTT0=
EXTT1=
EXTT2=
EXTT3=
EXTT4=
EXTT5=
EXTT6=
EXTT7=
EXTT8=
EXTT9=
EXTT10=
EXTT11=
EXTT12=
EXTT13=
EXTT14=
EXTT15=
EXTT16=
EXTT17=
EXTT18=
EXTT19=
EXTT20=
PLAYORDER=
